# AST/ASF file generated using VICON BodyLanguage
# -----------------------------------------------
:version 1.10
:name VICON
:units
  mass 1.0
  length 0.45
  angle deg
:documentation
   .ast/.asf automatically generated from VICON data using
   VICON BodyBuilder and BodyLanguage model FoxedUp or BRILLIANT.MOD
:root
   order TX TY TZ RX RY RZ
   axis XYZ
   position 0 0 0  
   orientation 0 0 0 
:bonedata
  begin
     id 1 
     name lhipjoint
     direction 0.575328 -0.747301 0.332475 
     length 2.40933 
     axis 0 0 0  XYZ
  end
  begin
     id 2 
     name lfemur
     direction 0.34202 -0.939693 0  
     length 7.31453  
     axis 0 0 20  XYZ
    dof rx ry rz
    limits (-160.0 20.0)
           (-70.0 70.0)
           (-60.0 70.0)
  end
  begin
     id 3 
     name ltibia
     direction 0.34202 -0.939693 0   
     length 7.82185   
     axis 0 0 20   XYZ
    dof rx
    limits (-10.0 170.0)
  end
  begin
     id 4 
     name lfoot
     direction 0.0795993 -0.218697 0.972541   
     length 2.19173   
     axis -90 7.62852e-016 20   XYZ
    dof rx rz
    limits (-45.0 90.0)
           (-70.0 20.0)
  end
  begin
     id 5 
     name ltoes
     direction 1.53537e-011 -4.21894e-011 1   
     length 1.10023   
     axis -90 7.62852e-016 20   XYZ
    dof rx
    limits (-90.0 20.0)
  end
  begin
     id 6 
     name rhipjoint
     direction -0.513884 -0.783789 0.348708   
     length 2.29716  
     axis 0 0 0  XYZ 
  end
  begin
     id 7 
     name rfemur
     direction -0.34202 -0.939693 0   
     length 7.59573   
     axis 0 0 -20   XYZ
    dof rx ry rz
    limits (-160.0 20.0)
           (-70.0 70.0)
           (-70.0 60.0)
  end
  begin
     id 8 
     name rtibia
     direction -0.34202 -0.939693 0   
     length 7.66402   
     axis 0 0 -20   XYZ
    dof rx
    limits (-10.0 170.0)
 end
 begin
     id 9 
     name rfoot
     direction -0.137793 -0.378584 0.915253   
     length 2.27056  
     axis -90 -7.62852e-016 -20   XYZ
    dof rx rz
    limits (-45.0 90.0)
           (-20.0 70.0)
  end
  begin
     id 10 
     name rtoes
     direction -1.53493e-011 -4.22159e-011 1   
     length 1.11766   
     axis -90 -7.62852e-016 -20   XYZ
    dof rx
    limits (-90.0 20.0)
  end
  begin
     id 11 
     name lowerback
     direction -0.00732775 0.998356 -0.05685   
     length 2.16513   
     axis 0 0 0   XYZ
    dof rx ry rz
    limits (-20.0 45.0)
           (-30.0 30.0)
           (-30.0 30.0)
  end
  begin
     id 12 
     name upperback
     direction 0.0218081 0.999627 -0.0164647   
     length 2.16755   
     axis 0 0 0   XYZ
    dof rx ry rz
    limits (-20.0 45.0)
           (-30.0 30.0)
           (-30.0 30.0)
  end
  begin
     id 13 
     name thorax
     direction 0.02365 0.999661 0.0108914   
     length 2.16932   
     axis 0 0 0   XYZ
    dof rx ry rz
    limits (-20.0 45.0)
           (-30.0 30.0)
           (-30.0 30.0)
  end
  begin
     id 14 
     name lowerneck
     direction -0.0523929 0.978385 0.200044   
     length 1.63877   
     axis 0 0 0   XYZ
    dof rx ry rz
    limits (-20.0 45.0)
           (-30.0 30.0)
           (-30.0 30.0)
  end
  begin
     id 15 
     name upperneck
     direction 0.0448674 0.981321 -0.187074   
     length 1.69014   
     axis 0 0 0   XYZ
    dof rx ry rz
    limits (-20.0 45.0)
           (-30.0 30.0)
           (-30.0 30.0)
  end
  begin
     id 16
     name head
     direction 0.0199089 0.996118 -0.0857429  
     length 1.70094  
     axis 0 0 0   XYZ
    dof rx ry rz
    limits (-20.0 45.0)
           (-30.0 30.0)
           (-30.0 30.0)
  end
  begin
     id 17 
     name lclavicle
     direction 0.940366 0.30191 -0.156722  
     length 3.37521  
     axis 0 0 0   XYZ
    dof ry rz
    limits (-20.0 10.0)
           (0.0 20.0)
  end
  begin
     id 18 
     name lhumerus
     direction 1 -4.4897e-011 -1.7911e-027   
     length 5.25287   
     axis 180 -30 -90   XYZ
    dof rx ry rz
    limits (-60.0 90.0)
           (-90.0 90.0)
           (-90.0 90.0)
  end
  begin
     id 19
     name lradius
     direction 1 -4.48951e-011 1.04424e-027   
     length 3.51014   
     axis 180 -30 -90   XYZ
    dof rx
    limits (-10.0 170.0)
  end
  begin
     id 20
     name lwrist
     direction 1 -4.48997e-011 -9.5942e-028   
     length 1.75507   
     axis 8.48502e-016 90 90   XYZ
    dof ry
    limits (-180.0 0.0)
 end
  begin
     id 21 
     name lhand
     direction 1 -4.48831e-011 -1.90777e-027   
     length 0.706179   
     axis 1.22306e-015 90 90   XYZ
    dof rx rz
    limits (-90.0 90.0)
           (-45.0 45.0)
  end
  begin
     id 22 
     name lfingers
     direction 1 -4.49108e-011 -3.85244e-027   
     length 0.569339   
     axis 2.44611e-015 90 90   XYZ
    dof rx
    limits (0.0 90.0)
  end
  begin
     id 23
     name lthumb
     direction 0.707107 -6.34953e-011 0.707107   
     length 0.817461   
     axis -90 45 -1.62303e-014   XYZ
    dof rx rz
    limits (-45.0 45.0)
           (-45.0 45.0)
  end
  begin
     id 24 
     name rclavicle
     direction -0.905329 0.382405 -0.184787   
     length 3.30787  
     axis 0 0 0   XYZ 
    dof ry rz
    limits (-10.0 20.0)
           (-20.0 0.0)
  end
  begin
     id 25 
     name rhumerus
     direction -1 -4.48953e-011 -9.15316e-029  
     length 5.28721   
     axis 180 30 90   XYZ
    dof rx ry rz
    limits (-90.0 60.0)
           (-90.0 90.0)
           (-90.0 90.0)
  end
  begin
     id 26 
     name rradius
     direction -1 -4.48987e-011 9.37824e-028   
     length 3.50544   
     axis 180 30 90   XYZ
    dof rx
    limits (-10.0 170.0)
  end
  begin
     id 27 
     name rwrist
     direction -1 -4.48967e-011 -9.58414e-028   
     length 1.75272   
     axis 8.48502e-016 -90 -90   XYZ
    dof ry
    limits (-180.0 0.0)
  end
  begin
     id 28
     name rhand
     direction -1 -4.48904e-011 -1.91266e-027   
     length 0.884996   
     axis 1.22306e-015 -90 -90   XYZ
    dof rx rz
    limits (-90.0 90.0)
           (-45.0 45.0)
  end
  begin
     id 29
     name rfingers
     direction -1 -4.4909e-011 -3.85015e-027   
     length 0.713507   
     axis 2.44611e-015 -90 -90   XYZ
    dof rx
    limits (0.0 90.0)
  end
  begin
     id 30
     name rthumb
     direction -0.707107 -6.34853e-011 0.707107   
     length 1.02446   
     axis -90 -45 1.62303e-014   XYZ
    dof rx rz
    limits (-45.0 45.0)
           (-45.0 45.0)
  end
:hierarchy
  begin
    root lhipjoint rhipjoint lowerback
    lhipjoint lfemur
    lfemur ltibia
    ltibia lfoot
    lfoot ltoes
    rhipjoint rfemur
    rfemur rtibia
    rtibia rfoot
    rfoot rtoes
    lowerback upperback
    upperback thorax
    thorax lowerneck lclavicle rclavicle
    lowerneck upperneck
    upperneck head
    lclavicle lhumerus
    lhumerus lradius
    lradius lwrist
    lwrist lhand lthumb
    lhand lfingers
    rclavicle rhumerus
    rhumerus rradius
    rradius rwrist
    rwrist rhand rthumb
    rhand rfingers
  end

#!OML:ASF F:\twosubjects\two\Thursday\Session 1\justin.ASF
:FULLY-SPECIFIED
:DEGREES
17
root 15.0803 17.9777 15.5462 1.63659 -66.159 4.74509
lowerback 7.30085 -3.68016 -3.63989
upperback 5.57447 -5.26102 2.91347
thorax 2.31546 -2.87905 5.30819
lowerneck 7.66472 -20.7276 -22.1847
upperneck 4.26679 -31.8796 26.3935
head 8.12214 -16.0718 8.3161
rclavicle -5.62561e-014 2.3059e-014
rhumerus -19.4488 2.67075 -26.5749
rradius 21.1225
rwrist 34.1994
rhand -18.2501 8.0425
rfingers 7.12502
rthumb 8.029 -21.785
lclavicle -5.62561e-014 2.3059e-014
lhumerus -24.3307 12.0444 52.1702
lradius 36.271
lwrist -6.14814
lhand -4.97637 37.6166
lfingers 7.12502
lthumb 20.8161 66.52
rfemur -20.4473 -2.60756 2.5962
rtibia 38.236
rfoot -11.8371 -21.2567
rtoes 2.90338
lfemur -18.647 12.8242 -14.9393
ltibia 37.2128
lfoot -17.5994 1.05937
ltoes -29.5571
18
root 15.0532 17.9852 15.4536 2.08274 -66.2013 4.28031
lowerback 7.43365 -3.57547 -3.34421
upperback 5.74716 -5.11834 2.95508
thorax 2.38149 -2.80743 5.18422
lowerneck 7.5211 -20.9393 -22.022
upperneck 4.08639 -32.0761 26.3679
head 8.10237 -16.1541 8.22006
rclavicle -1.21259e-014 1.70955e-014
rhumerus -20.4142 2.58208 -26.0612
rradius 20.9441
rwrist 34.3221
rhand -18.8471 8.12981
rfingers 7.12502
rthumb 7.45277 -21.7189
lclavicle -1.21259e-014 1.70955e-014
lhumerus -23.9732 12.6489 51.6615
lradius 36.1991
lwrist -6.57005
lhand -5.46492 37.7798
lfingers 7.12502
lthumb 20.3467 66.734
rfemur -20.3876 -2.27472 2.62587
rtibia 37.8276
rfoot -10.7057 -21.2589
rtoes 1.03013
lfemur -18.7158 12.6338 -14.2831
ltibia 37.3111
lfoot -17.1368 0.443995
ltoes -28.1856
19
root 15.0239 17.9816 15.3571 1.62173 -66.1305 4.72394
lowerback 7.75726 -3.51807 -3.60333
upperback 5.81614 -5.07074 3.07499
thorax 2.30702 -2.79822 5.47552
lowerneck 7.67958 -20.9296 -22.5528
upperneck 3.88326 -32.1278 26.6886
head 8.18195 -16.1998 8.36878
rclavicle -7.37491e-014 9.54166e-015
rhumerus -21.2373 2.90195 -25.3804
rradius 20.7771
rwrist 34.2081
rhand -19.5127 8.27325
rfingers 7.12502
rthumb 6.81028 -21.5972
lclavicle -7.37491e-014 9.54166e-015
lhumerus -24.0361 13.085 51.2381
lradius 36.2635
lwrist -7.04396
lhand -5.62886 37.6717
lfingers 7.12502
lthumb 20.1891 66.6426
rfemur -20.1728 -2.02415 2.23616
rtibia 37.3625
rfoot -9.75795 -20.9778
rtoes -1.94286
lfemur -18.7219 12.2906 -14.0387
ltibia 37.3729
lfoot -16.6296 0.0561058
ltoes -27.2052
20
root 14.9921 17.9656 15.2522 1.35881 -65.8601 4.88346
lowerback 8.10284 -3.6132 -3.81318
upperback 5.91666 -5.22795 3.22622
thorax 2.27917 -2.894 5.78102
lowerneck 7.72478 -20.727 -23.0479
upperneck 3.75897 -31.8951 26.9568
head 8.21801 -16.1024 8.56639
rclavicle -6.55989e-015 7.15625e-015
rhumerus -21.7536 3.38203 -24.8546
rradius 20.5311
rwrist 34.2162
rhand -20.184 8.32961
rfingers 7.12502
rthumb 6.16215 -21.5608
lclavicle -6.55989e-015 7.15625e-015
lhumerus -24.4619 13.3685 50.4251
lradius 36.5923
lwrist -7.18926
lhand -5.22298 37.111
lfingers 7.12502
lthumb 20.5792 66.0402
rfemur -19.851 -1.99199 2.05579
rtibia 36.9662
rfoot -9.42324 -20.546
rtoes -9.80849
lfemur -18.7628 12.0514 -13.6564
ltibia 37.448
lfoot -16.4221 -0.157989
ltoes -28.002
21
root 14.9628 17.9588 15.1362 1.44655 -65.681 4.6014
lowerback 8.46828 -3.64689 -3.7809
upperback 6.15491 -5.29307 3.23581
thorax 2.33569 -2.9388 5.79442
lowerneck 7.31671 -20.735 -22.6361
upperneck 3.666 -31.7343 26.7998
head 8.11166 -15.9934 8.47405
rclavicle -1.33186e-014 -1.66979e-014
rhumerus -22.4633 3.3828 -24.7274
rradius 20.3474
rwrist 34.4098
rhand -20.2998 7.85224
rfingers 7.12502
rthumb 6.05036 -22.0414
lclavicle -1.33186e-014 -1.66979e-014
lhumerus -24.5596 13.3912 49.4507
lradius 36.9447
lwrist -7.00925
lhand -5.22183 36.8056
lfingers 7.12502
lthumb 20.5803 65.7346
rfemur -19.4962 -1.12948 2.19952
rtibia 36.6462
rfoot -9.93165 -20.7802
rtoes -17.6735
lfemur -18.7479 11.9997 -13.0326
ltibia 37.5277
lfoot -16.2357 -0.350545
ltoes -29.1876
22
root 14.9395 17.9298 15.0181 0.956536 -65.5531 5.11728
lowerback 8.75118 -3.51001 -3.78243
upperback 6.32345 -5.12021 3.00169
thorax 2.31085 -2.85112 5.55669
lowerneck 7.24672 -20.8553 -22.1475
upperneck 3.21305 -31.7998 27.1133
head 7.97836 -16.034 8.50014
rclavicle 1.03368e-014 -1.59028e-014
rhumerus -23.9009 2.12351 -24.5534
rradius 20.1622
rwrist 35.5771
rhand -20.1243 7.51911
rfingers 7.12502
rthumb 6.21985 -22.3696
lclavicle 1.03368e-014 -1.59028e-014
lhumerus -24.1229 12.9303 48.7918
lradius 37.1712
lwrist -6.71248
lhand -5.46091 36.8051
lfingers 7.12502
lthumb 20.3505 65.7589
rfemur -19.4107 -0.891137 2.00204
rtibia 36.5057
rfoot -10.4628 -20.2649
rtoes -23.1058
lfemur -18.9494 11.8797 -12.8129
ltibia 37.7096
lfoot -16.0439 -0.402973
ltoes -29.8507
23
root 14.9139 17.8959 14.902 0.636377 -65.3963 5.55179
lowerback 8.9849 -3.48837 -3.91081
upperback 6.34099 -5.10584 2.95553
thorax 2.20723 -2.84559 5.59725
lowerneck 7.41617 -20.7147 -22.2679
upperneck 2.90207 -31.6285 27.4942
head 7.90994 -15.9828 8.69908
rclavicle 4.96962e-015 -2.66371e-014
rhumerus -25.2247 3.56541 -24.4777
rradius 20.2571
rwrist 34.5765
rhand -19.0977 6.87439
rfingers 7.12502
rthumb 7.21084 -22.9828
lclavicle 4.96962e-015 -2.66371e-014
lhumerus -24.218 12.5991 48.1216
lradius 37.4686
lwrist -6.52011
lhand -5.28351 36.7271
lfingers 7.12502
lthumb 20.521 65.6626
rfemur -19.4162 -1.07731 1.88519
rtibia 36.5493
rfoot -10.696 -19.2919
rtoes -27.3865
lfemur -19.3119 11.6412 -12.6023
ltibia 37.9659
lfoot -15.8438 -0.353342
ltoes -30.3868
24
root 14.884 17.872 14.7784 0.955038 -65.5296 5.24022
lowerback 9.28816 -3.44035 -4.00473
upperback 6.3761 -5.06179 3.03914
thorax 2.09033 -2.82927 5.75805
lowerneck 7.39458 -20.5065 -22.1204
upperneck 2.77549 -31.2713 27.4587
head 7.75167 -15.8184 8.7734
rclavicle -4.37326e-014 -1.59028e-015
rhumerus -26.3246 5.78901 -24.748
rradius 20.415
rwrist 32.6911
rhand -19.5786 7.17639
rfingers 7.12502
rthumb 6.7466 -22.6961
lclavicle -4.37326e-014 -1.59028e-015
lhumerus -24.5464 12.3505 47.2425
lradius 37.7916
lwrist -6.46278
lhand -5.14754 36.6324
lfingers 7.12502
lthumb 20.6517 65.5537
rfemur -19.5458 -1.13949 2.2278
rtibia 36.8195
rfoot -11.1693 -18.2826
rtoes -29.5831
lfemur -19.6122 11.7683 -12.0299
ltibia 38.2893
lfoot -15.7658 -0.183459
ltoes -32.0452
25
root 14.8603 17.8521 14.6509 0.801727 -65.7348 5.46234
lowerback 9.61749 -3.26404 -4.08654
upperback 6.49031 -4.84657 2.9051
thorax 1.99654 -2.72316 5.67158
lowerneck 7.37163 -20.4299 -21.8945
upperneck 2.41165 -31.1101 27.8008
head 7.63435 -15.7584 8.90103
rclavicle -2.5842e-015 6.36111e-015
rhumerus -27.6362 4.42206 -24.9364
rradius 20.2248
rwrist 33.7276
rhand -20.02 6.82262
rfingers 7.12502
rthumb 6.32053 -23.0631
lclavicle -2.5842e-015 6.36111e-015
lhumerus -24.4108 12.0885 46.4064
lradius 38.0377
lwrist -6.52151
lhand -5.11534 36.3558
lfingers 7.12502
lthumb 20.6826 65.2738
rfemur -19.8583 -1.24454 2.36728
rtibia 37.2604
rfoot -11.8038 -17.2748
rtoes -30.6048
lfemur -19.8877 11.8118 -11.6745
ltibia 38.6192
lfoot -15.6833 0.110842
ltoes -33.6347
